<svg xmlns="http://www.w3.org/2000/svg" viewBox="0 0 100 100">
  <g transform="translate(20 10) scale(0.6)">
    <path
      d="M50 6 C37 6 24 13 17 25 C8 40 8 60 12 78 C16 96 25 114 37 122 C41 125 46 126 50 124 C54 126 59 125 63 122 C75 114 84 96 88 78 C92 60 92 40 83 25 C76 13 63 6 50 6 Z"
      fill="#C9A84C"
    />
    <path
      d="M50 18 C40 18 29 24 24 34 C16 47 16 64 20 80 C24 96 32 112 43 119 C46 121 49 122 50 121 C51 122 54 121 57 119 C68 112 76 96 80 80 C84 64 84 47 76 34 C71 24 60 18 50 18 Z"
      fill="rgba(0,0,0,0.12)"
    />
    <path
      d="M35 30 Q47 70 61 112"
      stroke="rgba(255,255,255,0.45)" stroke-width="9" stroke-linecap="round" fill="none"
    />
  </g>
</svg>