<svg xmlns="http://www.w3.org/2000/svg" viewBox="0 0 64 64">
  <!-- Navy circle background -->
  <circle cx="32" cy="32" r="32" fill="#1E3A8A"/>
  <!-- Outer tooth boundary -->
  <path
    d="M32 7
       C25 7 18 11 14 17
       C8 26 8 37 11 47
       C14 57 20 67 27 72
       C29 74 31 75 32 74
       C33 75 35 74 37 72
       C44 67 50 57 53 47
       C56 37 56 26 50 17
       C46 11 39 7 32 7 Z"
    stroke="#C9A84C" stroke-width="4.5" fill="none" stroke-linejoin="round" stroke-linecap="round"
  />
  <!-- Inner echo -->
  <path
    d="M32 14
       C26 14 21 17 18 23
       C13 30 13 40 16 49
       C19 57 24 66 30 71
       C31 72 32 72 32 71
       C32 72 33 72 34 71
       C40 66 45 57 48 49
       C51 40 51 30 46 23
       C43 17 38 14 32 14 Z"
    stroke="#C9A84C" stroke-width="2" fill="none" stroke-linejoin="round" opacity="0.65"
  />
  <!-- Diagonal swoosh -->
  <path d="M24 21 Q30 42 38 68" stroke="#C9A84C" stroke-width="3.5" stroke-linecap="round" fill="none"/>
</svg>
