<svg xmlns="http://www.w3.org/2000/svg" viewBox="0 0 100 122" fill="none" role="img" aria-label="Astra Dental Clinic Logo">
  <!-- Outer tooth boundary -->
  <path
    d="M50 6
       C37 6 24 13 17 25
       C8 40 8 60 12 78
       C16 96 25 114 37 122
       C41 125 46 126 50 124
       C54 126 59 125 63 122
       C75 114 84 96 88 78
       C92 60 92 40 83 25
       C76 13 63 6 50 6 Z"
    stroke="#C9A84C" stroke-width="7" stroke-linejoin="round" stroke-linecap="round"
  />
  <!-- Inner echo line -->
  <path
    d="M50 18
       C40 18 29 24 24 34
       C16 47 16 64 20 80
       C24 96 32 112 43 119
       C46 121 49 122 50 121
       C51 122 54 121 57 119
       C68 112 76 96 80 80
       C84 64 84 47 76 34
       C71 24 60 18 50 18 Z"
    stroke="#C9A84C" stroke-width="3.5" stroke-linejoin="round" stroke-linecap="round" opacity="0.65"
  />
  <!-- Signature diagonal swoosh -->
  <path
    d="M35 30 Q47 70 61 112"
    stroke="#C9A84C" stroke-width="6" stroke-linecap="round"
  />
</svg>
